<svg xmlns="http://www.w3.org/2000/svg" viewBox="13 12 66 48" role="img" aria-label="99 Food">
  <title>99 Food</title>
  <g clip-path="url(#clip0_99food_logo)">
    <path d="M20.3882 12.0864C18.747 12.3432 17.2401 13.0966 16.0661 14.2495C14.9447 15.3568 14.2613 16.6067 13.9342 18.1649C13.7707 18.9354 13.7532 20.1682 13.8992 20.9615C14.3957 23.6954 16.4165 25.9727 19.1266 26.8631C19.4537 26.9715 19.7399 27.0685 19.7574 27.0857C19.7691 27.1028 18.8112 28.5696 17.6197 30.3446C16.4282 32.1197 15.4528 33.615 15.4528 33.6664C15.4528 33.7121 15.482 33.8034 15.5112 33.8662C15.5696 33.9689 15.6631 33.9746 18.4258 33.9746C21.0658 33.9746 21.2819 33.9689 21.3636 33.8719C21.5739 33.6379 28.2849 23.5699 28.5127 23.1589C29.085 22.0973 29.3712 20.9615 29.3712 19.6773C29.3712 18.7071 29.2778 18.0735 29.0091 17.2631C28.2498 15.0086 26.3866 13.1594 24.0971 12.4003C23.0458 12.0521 21.4688 11.9152 20.3882 12.0864ZM22.2573 16.6524C23.6824 17.0177 24.6344 18.4046 24.4008 19.7801C24.3073 20.3337 24.0387 20.836 23.6181 21.2811C22.5201 22.4284 20.6803 22.4284 19.553 21.2811C18.4666 20.1796 18.4608 18.553 19.5413 17.4571C20.2773 16.7094 21.2877 16.407 22.2573 16.6524Z" fill="#201a17" />
    <path d="M37.3908 12.0636C34.6457 12.4345 32.2568 14.2267 31.223 16.7037C30.4228 18.6215 30.4404 20.7789 31.2756 22.6738C32.1751 24.7114 34.0149 26.3037 36.1876 26.9316C36.4271 27.0001 36.6257 27.0685 36.6257 27.0857C36.6257 27.1028 35.6678 28.5468 34.4938 30.2933C33.3198 32.0398 32.3386 33.518 32.3094 33.5808C32.2743 33.6493 32.286 33.7292 32.3561 33.8319L32.4496 33.9746H35.2706C36.8184 33.9746 38.1151 33.9518 38.1501 33.9289C38.2786 33.849 45.1531 23.5413 45.4101 23.0448C45.708 22.474 45.9533 21.7948 46.0993 21.1042C46.2395 20.4421 46.2395 18.8212 46.0993 18.1649C45.7547 16.5782 45.0129 15.2597 43.8448 14.1525C42.7467 13.1137 41.4501 12.446 39.9549 12.1435C39.4 12.0293 37.9632 11.9836 37.3908 12.0636ZM39.0028 16.6295C39.7212 16.7779 40.4105 17.2402 40.8135 17.8452C41.894 19.4833 40.9828 21.6293 39.0145 22.0802C37.8113 22.3542 36.468 21.7263 35.8956 20.6191C35.6678 20.1739 35.586 19.7515 35.6152 19.1465C35.6386 18.6785 35.662 18.5815 35.8839 18.1477C36.468 16.9948 37.7412 16.3727 39.0028 16.6295Z" fill="#201a17" />
    <path d="M74.4446 39.1508C74.2169 39.2307 74.211 39.2707 74.211 42.1187C74.211 44.2876 74.1935 44.8754 74.1409 44.8754C74.1 44.8754 73.8781 44.8012 73.6445 44.7099C73.037 44.4645 72.1142 44.259 71.3432 44.1905C67.6753 43.8652 64.1533 46.1539 62.9969 49.6184C62.699 50.4973 62.623 51.0224 62.623 52.0954C62.6289 52.8773 62.6523 53.1798 62.7574 53.665C63.2714 56.0336 64.825 58.0198 67.0094 59.0985C68.014 59.6008 68.8609 59.8405 69.9999 59.9432C71.2498 60.0574 72.7275 59.8234 73.9073 59.3268L74.4446 59.0985V59.3154C74.4446 59.7206 74.4038 59.7149 76.705 59.7149C78.6091 59.7149 78.7551 59.7092 78.8427 59.6122C78.9361 59.5152 78.942 58.7275 78.942 49.4357C78.942 43.8995 78.9186 39.3392 78.8953 39.3049C78.7726 39.128 78.5799 39.1109 76.5648 39.1166C75.4492 39.1166 74.4914 39.1337 74.4446 39.1508ZM71.6177 49.3273C72.523 49.6355 73.1655 50.2576 73.4868 51.148C73.6795 51.6788 73.6795 52.455 73.4868 52.9915C73.0078 54.3099 71.6061 55.1432 70.2393 54.9206C69.6144 54.8179 68.9894 54.4926 68.5572 54.0417C67.4592 52.8888 67.4533 51.245 68.5514 50.0978C69.3399 49.2759 70.5547 48.9734 71.6177 49.3273Z" fill="#201a17" />
    <path d="M18.5253 40.4292C17.2462 40.6119 15.8678 41.2854 14.9274 42.1928C14.2441 42.8549 13.6366 43.8081 13.3212 44.7213C13 45.663 13 45.6573 13 52.8373C13 58.7389 13.0117 59.4751 13.0935 59.5893L13.1811 59.7148H15.6809C18.0289 59.7148 18.1865 59.7091 18.2742 59.6121C18.3618 59.5151 18.3735 59.2069 18.3735 56.3645C18.3735 53.2711 18.3735 53.2197 18.4961 53.0713L18.6129 52.9229H22.351H26.089L26.2292 52.7802L26.3752 52.6433V50.7084C26.3752 48.8421 26.3694 48.7736 26.2584 48.6537L26.1358 48.5282H22.3743H18.6129L18.4961 48.3798C18.3851 48.2371 18.3735 48.1515 18.3735 47.2725C18.3735 46.1938 18.4377 45.8913 18.7356 45.5374C18.8349 45.4176 19.051 45.2578 19.2145 45.1836L19.5124 45.0466H23.6768H27.8412L27.9814 44.9039L28.1274 44.7669V42.678C28.1274 40.6689 28.1216 40.589 28.0106 40.4806C27.8938 40.3665 27.8179 40.3665 23.3848 40.3722C20.9025 40.3779 18.7122 40.4007 18.5253 40.4292Z" fill="#201a17" />
    <path d="M34.9373 44.1966C31.4095 44.5276 28.5008 47.1245 27.7941 50.5661C27.6481 51.2682 27.6481 52.8663 27.7941 53.5683C28.419 56.6047 30.7728 59.0246 33.7925 59.7381C38.3249 60.8111 42.7813 58.0372 43.7042 53.5683C43.8502 52.8663 43.8502 51.2682 43.7042 50.5661C42.9858 47.0674 40.0888 44.5219 36.45 44.1909C35.7374 44.1281 35.6849 44.1281 34.9373 44.1966ZM36.3332 49.242C36.561 49.2877 36.9056 49.4075 37.1042 49.5045C37.5422 49.7214 38.1497 50.315 38.3716 50.7374C38.8272 51.6163 38.8038 52.6208 38.319 53.4712C38.0679 53.905 37.4721 54.4586 37.0341 54.6641C36.6895 54.8182 36.0528 54.978 35.7491 54.978C35.4162 54.978 34.7562 54.8068 34.3941 54.6299C33.956 54.413 33.3486 53.8194 33.1267 53.397C32.5192 52.227 32.7587 50.8915 33.7341 49.9897C34.1838 49.5787 34.5927 49.3619 35.1417 49.2477C35.6323 49.1393 35.8367 49.1393 36.3332 49.242Z" fill="#201a17" />
    <path d="M52.3953 44.1966C51.3615 44.2936 50.1174 44.6817 49.2471 45.1726C48.5287 45.5778 48.0907 45.9089 47.4832 46.5024C46.3501 47.6097 45.6551 48.8653 45.2871 50.4748C45.0944 51.331 45.0944 52.8035 45.2871 53.6596C45.5441 54.784 45.8946 55.583 46.5195 56.502C48.7156 59.7096 53.0378 60.8682 56.6824 59.2244C57.4475 58.8763 58.2418 58.3226 58.9427 57.6377C60.105 56.4905 60.8176 55.2064 61.168 53.6083C61.314 52.9234 61.314 51.2111 61.168 50.5262C60.8351 49.008 60.1342 47.701 59.0712 46.6109C57.6753 45.1897 55.9581 44.3792 53.9139 44.1909C53.2013 44.1281 53.1487 44.1281 52.3953 44.1966ZM53.797 49.242C54.6615 49.419 55.4091 49.9612 55.8063 50.6917C56.0632 51.1655 56.1625 51.5421 56.1625 52.0672C56.1625 52.8606 55.8705 53.5341 55.2806 54.1105C54.8717 54.51 54.3636 54.7726 53.797 54.8924C53.2889 54.9952 53.137 54.9952 52.6464 54.8981C52.074 54.7783 51.6418 54.55 51.1979 54.1448C50.4386 53.4427 50.1174 52.4725 50.3277 51.4851C50.5555 50.4006 51.4958 49.4817 52.6231 49.242C53.0903 49.1393 53.3064 49.1393 53.797 49.242Z" fill="#201a17" />
  </g>
  <defs>
    <clipPath id="clip0_99food_logo">
      <rect width="66" height="48" fill="white" transform="translate(13 12)" />
    </clipPath>
  </defs>
</svg>
